#!OML:ASF F:\VICON\USERDATA\INSTALL\rory3\rory3.ASF
:FULLY-SPECIFIED
:DEGREES
16
root 1.26083 17.8679 -26.0898 -0.185839 1.40911 3.58943
lowerback 11.333 -2.11994 -5.05785
upperback -0.191284 -3.39396 1.51047
thorax -6.17813 -1.48395 5.00048
lowerneck -15.9663 -2.67799 -2.76369
upperneck 22.7464 -3.01967 -0.0475992
head 9.90874 -1.64854 0.0479149
rclavicle 4.63665e-014 -1.90833e-014
rhumerus -34.0513 -22.2085 -74.9598
rradius 22.8732
rwrist 7.66461
rhand -18.652 23.9092
rfingers 7.12502
rthumb 7.64106 -5.93278
lclavicle 4.63665e-014 -1.90833e-014
lhumerus -21.1233 -3.00266 82.1097
lradius 31.6117
lwrist 7.05881
lhand -30.3487 24.0303
lfingers 7.12502
lthumb -3.65417 53.9787
rfemur -29.2895 8.73838 12.5765
rtibia 14.7786
rfoot -11.2287 -17.1281
rtoes 1.54403
lfemur 9.62112 -1.22972 -27.7305
ltibia 16.8616
lfoot -14.7343 -1.12864
ltoes -5.56848
17
root 1.23762 17.8405 -25.9153 -0.231881 1.53299 3.78826
lowerback 11.7257 -2.60444 -6.10146
upperback -0.837871 -4.17508 2.17809
thorax -6.87706 -1.77463 6.4812
lowerneck -14.0149 -2.10955 -3.64034
upperneck 22.3085 -2.01292 -0.32615
head 9.38341 -1.29139 0.25216
rclavicle 2.38542e-014 -7.15625e-015
rhumerus -34.747 -19.868 -74.4869
rradius 22.7283
rwrist 7.30054
rhand -18.0872 23.928
rfingers 7.12502
rthumb 8.18621 -5.89344
lclavicle 2.38542e-014 -7.15625e-015
lhumerus -22.7352 -0.748102 82.3603
lradius 31.8708
lwrist 6.61909
lhand -29.9434 24.6033
lfingers 7.12502
lthumb -3.26276 54.558
rfemur -28.9076 9.19994 12.0723
rtibia 13.3491
rfoot -11.62 -17.1111
rtoes 0.491597
lfemur 10.2086 -1.28408 -27.824
ltibia 17.0203
lfoot -14.7568 -1.3508
ltoes -6.53643
18
root 1.21079 17.8229 -25.7392 -0.222225 1.75187 3.71842
lowerback 11.7011 -2.18214 -5.46128
upperback -0.346054 -3.54603 1.63259
thorax -6.5017 -1.52685 5.41135
lowerneck -15.8454 -2.67714 -2.53896
upperneck 22.7641 -3.00395 -0.363238
head 9.88254 -1.65923 -0.0960692
rclavicle 3.33461e-014 -1.11319e-014
rhumerus -34.4838 -22.2983 -74.6036
rradius 22.6897
rwrist 7.11232
rhand -17.4786 23.9797
rfingers 7.12502
rthumb 8.7735 -5.81793
lclavicle 3.33461e-014 -1.11319e-014
lhumerus -21.2288 -3.00545 82.2565
lradius 31.757
lwrist 6.95241
lhand -29.9686 27.1939
lfingers 7.12502
lthumb -3.28709 57.1483
rfemur -28.6917 9.25541 12.1004
rtibia 12.7094
rfoot -11.2235 -16.7303
rtoes 0.607123
lfemur 10.6367 -1.34008 -27.5421
ltibia 17.361
lfoot -14.8398 -1.76736
ltoes -7.42317
19
root 1.18499 17.8105 -25.5664 -0.349718 2.08413 3.60508
lowerback 11.796 -2.12738 -5.1277
upperback -0.00242841 -3.43416 1.47135
thorax -6.23125 -1.5034 5.02489
lowerneck -16.7554 -2.85672 -2.31734
upperneck 22.9359 -3.32669 -0.210453
head 10.1176 -1.76757 -0.137973
rclavicle 1.66979e-014 -9.54166e-015
rhumerus -34.1294 -23.6392 -74.5509
rradius 22.31
rwrist 7.61325
rhand -17.5818 23.7849
rfingers 7.12502
rthumb 8.67394 -6.01685
lclavicle 1.66979e-014 -9.54166e-015
lhumerus -20.3635 -3.7743 82.1783
lradius 31.6607
lwrist 7.00655
lhand -30.09 27.2356
lfingers 7.12502
lthumb -3.4044 57.1882
rfemur -28.5111 8.65475 12.5011
rtibia 12.9976
rfoot -10.7201 -15.7894
rtoes 1.10959
lfemur 11.1877 -1.76502 -27.2931
ltibia 17.7556
lfoot -14.8535 -2.15901
ltoes -7.47169
